<svg viewBox="0 0 1296 821.36" xmlns="http://www.w3.org/2000/svg"><path d="m0 .23h1276v780h-1276z" fill="#fff"/><path d="m0 0h1276v70h-1276z" fill="#333"/><path d="m0 70h1276v60.9h-1276z" fill="#f1f0f0"/><path d="m0 765.23h1276v35h-1276z" fill="#f1f0f0"/><path d="m0 128.92h1276v3.95h-1276z" fill="#eaeaea"/><path d="m291.17 84.67h251.86v49.25h-251.86z" fill="#fff"/><path d="m291.17 84.67h251.86v6.61h-251.86z" fill="#f36c3d"/><path d="m314.39 287.81h-4.47l-4.86-7.81-1.66 1.19v6.63h-3.94v-18.57h3.94v8.49l1.55-2.18 5-6.31h4.36l-6.47 8.21zm13.03 0h-10.69v-18.56h10.69v3.22h-6.76v4.08h6.34v3.22h-6.29v4.79h6.76zm9.65-10.92 3.87-7.64h4.24l-6.18 11.33v7.23h-3.91v-7.1l-6.09-11.46h4.27zm61.76-7.64h4l-6.31 18.56h-4.32l-6.3-18.56h4l3.49 11q.28 1 .6 2.28c.21.87.34 1.47.39 1.81a31.91 31.91 0 0 1 .95-4.09zm17.67 18.56-1.35-4.42h-6.76l-1.39 4.42h-4.2l6.55-18.64h4.81l6.58 18.64zm-2.29-7.72-2.1-6.79c-.15-.53-.27-.94-.33-1.25q-.42 1.63-2.4 8zm8.87 7.72v-18.56h3.92v15.31h7.53v3.25zm29.79-18.56v12a6.88 6.88 0 0 1 -.92 3.6 6 6 0 0 1 -2.66 2.38 9.39 9.39 0 0 1 -4.11.82 7.87 7.87 0 0 1 -5.56-1.83 6.52 6.52 0 0 1 -2-5v-12h3.92v11.36a4.78 4.78 0 0 0 .86 3.15 3.61 3.61 0 0 0 2.86 1 3.5 3.5 0 0 0 2.8-1 4.77 4.77 0 0 0 .87-3.17v-11.31zm15.24 18.56h-10.69v-18.56h10.69v3.22h-6.76v4.08h6.29v3.22h-6.29v4.79h6.76zm53.17-9.46c0 3-.87 5.4-2.6 7s-4.25 2.44-7.54 2.44h-5.25v-18.54h5.82a9.81 9.81 0 0 1 7.06 2.4 8.79 8.79 0 0 1 2.51 6.7zm-4.08.1q0-6-5.28-6h-2.1v12.09h1.69c3.79.01 5.68-2.02 5.69-6.09zm18.62 9.36h-10.69v-18.56h10.69v3.22h-6.75v4.08h6.28v3.22h-6.28v4.79h6.75zm14.83-5.16a4.77 4.77 0 0 1 -1.81 4 7.83 7.83 0 0 1 -5 1.45 11.77 11.77 0 0 1 -5.26-1.12v-3.65a21.31 21.31 0 0 0 3.18 1.18 9.18 9.18 0 0 0 2.38.34 3.35 3.35 0 0 0 2-.49 1.89 1.89 0 0 0 .39-2.48 3.7 3.7 0 0 0 -.9-.82 23.89 23.89 0 0 0 -2.41-1.25 11.62 11.62 0 0 1 -2.55-1.54 5.78 5.78 0 0 1 -1.36-1.71 4.91 4.91 0 0 1 -.5-2.29 4.77 4.77 0 0 1 1.67-3.87 6.89 6.89 0 0 1 4.61-1.41 10.7 10.7 0 0 1 2.76.34 18.09 18.09 0 0 1 2.75 1l-1.27 3.06a17.88 17.88 0 0 0 -2.46-.85 7.69 7.69 0 0 0 -1.91-.24 2.52 2.52 0 0 0 -1.71.52 1.84 1.84 0 0 0 -.36 2.26 2.89 2.89 0 0 0 .77.75 23.7 23.7 0 0 0 2.5 1.3 9.88 9.88 0 0 1 3.56 2.5 4.81 4.81 0 0 1 .93 3.02zm11.25-10.39a4 4 0 0 0 -3.44 1.67 7.72 7.72 0 0 0 -1.22 4.65q0 6.21 4.66 6.21a14.76 14.76 0 0 0 4.73-1v3.3a13.27 13.27 0 0 1 -5.1 1 7.82 7.82 0 0 1 -6.2-2.45c-1.43-1.64-2.15-4-2.14-7.06a11.64 11.64 0 0 1 1-5.07 7.64 7.64 0 0 1 3-3.34 9 9 0 0 1 4.71-1.17 12.48 12.48 0 0 1 5.43 1.31l-1.27 3.2a20 20 0 0 0 -2.09-.87 6.32 6.32 0 0 0 -2.07-.38zm12.62 8.43v7.12h-3.94v-18.56h5.42q3.78 0 5.6 1.37a5.51 5.51 0 0 1 .91 7.1 6 6 0 0 1 -2.55 2q4.18 6.25 5.46 8.09h-4.42l-4.43-7.12zm0-3.2h1.27a4.8 4.8 0 0 0 2.75-.63 2.21 2.21 0 0 0 .89-1.95 2 2 0 0 0 -.91-1.88 5.57 5.57 0 0 0 -2.81-.56h-1.19zm13.22 10.32v-18.56h3.94v18.56zm21.43-12.81a5.68 5.68 0 0 1 -1.87 4.58 8 8 0 0 1 -5.32 1.59h-1.69v6.6h-3.94v-18.52h5.93a7.91 7.91 0 0 1 5.14 1.45 5.3 5.3 0 0 1 1.75 4.3zm-8.88 3h1.29a4.3 4.3 0 0 0 2.72-.72 2.48 2.48 0 0 0 .9-2.08 2.61 2.61 0 0 0 -.75-2.05 3.59 3.59 0 0 0 -2.37-.66h-1.79zm19.55 9.81h-3.94v-15.29h-5v-3.27h14v3.27h-5zm7.9 0v-18.56h3.93v18.56zm25.45-9.31c0 3.07-.76 5.44-2.29 7.09a9.93 9.93 0 0 1 -13.1 0q-2.28-2.47-2.28-7.11t2.29-7.08a8.57 8.57 0 0 1 6.57-2.44 8.44 8.44 0 0 1 6.54 2.46c1.51 1.64 2.26 4 2.27 7.08zm-13.55 0a7.83 7.83 0 0 0 1.18 4.69 4.16 4.16 0 0 0 3.53 1.57q4.71 0 4.71-6.26t-4.68-6.27a4.15 4.15 0 0 0 -3.54 1.58 7.75 7.75 0 0 0 -1.2 4.69zm33.86 9.31h-5l-8.07-14h-.12c.16 2.48.24 4.25.24 5.3v8.74h-3.55v-18.6h5l8.06 13.9h.09c-.15-2.41-.15-4.15-.15-5.15v-8.78h3.54z" fill="#7e7e7e"/><rect fill="#f1f0f0" height="35" rx="6.72" width="879.02" x="241.17" y="152.43"/><rect fill="#464647" height="35" rx="3.23" width="59" x="1197" y="17.5"/><circle cx="1165.23" cy="35" fill="#464647" r="11.98"/><circle cx="1123.13" cy="35" fill="#464647" r="11.98"/><circle cx="1081.02" cy="35" fill="#464647" r="11.98"/><circle cx="1038.92" cy="35" fill="#f36c3d" r="16.06" transform="matrix(.16177606 -.9868275 .9868275 .16177606 836.349348 1054.580567)"/><rect fill="#3e76bb" height="35" rx="4.57" width="118" x="1138" y="152.43"/><rect fill="#fff" height="32.05" rx="4.71" width="223.75" x="980.62" y="84.97"/><rect fill="#eaeaea" height="32.05" rx="4.79" width="32.05" x="1224.37" y="84.97"/><path d="m1208.41 224.89h47.59v8.07h-47.59z" fill="#f36c3d"/><path d="m264.39 224.89h47.59v8.07h-47.59z" fill="#f36c3d"/><path d="m331.99 224.89h47.59v8.07h-47.59z" fill="#eaeaea"/><path d="m399.59 224.89h47.59v8.07h-47.59z" fill="#eaeaea"/><path d="m467.18 224.89h47.59v8.07h-47.59z" fill="#eaeaea"/><path d="m377.78 152.43h3.95v35h-3.95z" fill="#eaeaea"/><path d="m264.39 246.98h3.95v123.34h-3.95z" fill="#f1f0f0"/><path d="m372 246.99h3.95v123.34h-3.95z" fill="#f1f0f0"/><path d="m479.6 246.99h3.95v123.34h-3.95z" fill="#f1f0f0"/><path d="m221.17 246.15h1054.83v3.94h-1054.83z" fill="#f1f0f0"/><path d="m221.17 306.69h1054.83v3.94h-1054.83z" fill="#f1f0f0"/><path d="m221.17 207.64h1054.83v3.94h-1054.83z" fill="#f1f0f0"/><path d="m0 70.1h219.2v145h-219.2z" fill="#f1f0f0"/><rect fill="#fff" height="32.05" rx="16.02" width="179.2" x="20" y="86.68"/><path d="m217.23 70.11h3.95v695.13h-3.95z" fill="#f1f0f0"/><path d="m185.94 179.83h13.26v13.26h-13.26z" fill="#d4d4d4"/><rect fill="#f26b39" height="35" rx="4.57" width="118" x="20" y="17.5"/><rect fill="#464647" height="35" rx="3.23" width="59" x="148" y="17.5"/><rect fill="#464647" height="35" rx="3.23" width="59" x="217" y="17.5"/><rect fill="#464647" height="35" rx="3.23" width="59" x="286" y="17.5"/><path d="m0 763.26h1276v3.95h-1276z" fill="#eaeaea"/><path d="m292.19 336.05 3.66-.13h7.36v1.75h-11zm3.61-1.19c0-3.07 1.61-5.12 5.1-5.12a9.45 9.45 0 0 1 3.64.72l-.5 1.62a6.77 6.77 0 0 0 -2.94-.6c-2.26 0-3.17 1.27-3.17 3.3v13.78h-2.13zm10.87 7.41c0-4.24 2.91-6.66 6.24-6.66s6.24 2.42 6.24 6.66-2.91 6.6-6.24 6.6-6.24-2.41-6.24-6.6zm10.27 0c0-2.91-1.61-4.86-4-4.86s-4 1.95-4 4.86 1.61 4.81 4 4.81 4-1.93 4-4.81zm5.33 0c0-4.24 2.91-6.66 6.24-6.66s6.24 2.42 6.24 6.66-2.92 6.6-6.24 6.6-6.24-2.41-6.24-6.6zm10.27 0c0-2.91-1.61-4.86-4-4.86s-4 1.95-4 4.86 1.61 4.81 4 4.81 4-1.93 4-4.81zm6.29 4.5h4.78v-12.17h-3.72v-1.41a12 12 0 0 0 4.27-1.22h1.61v14.8h4.32v1.79h-11.26zm61.67.39h-.08l-.2 1.4h-1.72v-18.51h2.16v5l-.11 2.45h.08a6.21 6.21 0 0 1 4.24-1.93c3.41 0 5.25 2.52 5.25 6.43 0 4.31-2.7 6.83-5.69 6.83a6.25 6.25 0 0 1 -3.93-1.67zm7.41-5.1c0-2.78-1-4.63-3.56-4.63a5.35 5.35 0 0 0 -3.69 1.87v6.3a5.32 5.32 0 0 0 3.41 1.45c2.18 0 3.84-1.87 3.84-4.99zm5.85 3.23c0-2.84 2.65-4.22 9.18-4.74a3 3 0 0 0 -2.8-3.19 3.33 3.33 0 0 0 -.55 0 8.87 8.87 0 0 0 -4.42 1.51l-.86-1.46a11 11 0 0 1 5.64-1.82c3.46 0 5.15 2.06 5.15 5.2v7.75h-1.8l-.18-1.72h-.12a8.38 8.38 0 0 1 -5 2c-2.29.05-4.24-1.27-4.24-3.53zm9.18 0v-3.29c-5.41.42-7.05 1.48-7.05 3.15 0 1.43 1.31 2 2.76 2a6.89 6.89 0 0 0 4.29-1.89zm8.11-9.37h1.8l.2 3h.06a6.65 6.65 0 0 1 5.64-3.3 5.36 5.36 0 0 1 2.49.52l-.49 1.85a6.25 6.25 0 0 0 -2.34-.42c-1.9 0-3.69 1-5.2 3.62v7.38h-2.16zm14.35 10.85h4.79v-12.17h-3.72v-1.41a12 12 0 0 0 4.26-1.22h1.62v14.8h4.31v1.79h-11.26z" fill="#7e7e7e"/><path d="m71.98 156.38h75.24v6.61h-75.24z" fill="#f36c3d"/><path d="m0 161.13h221.17v3.95h-221.17z" fill="#eaeaea"/><path d="m143.62 134.26h55.58v11.21h-55.58z" fill="#d4d4d4"/><path d="m81.81 134.26h55.58v11.21h-55.58z" fill="#f36c3d"/><path d="m20 134.26h55.58v11.21h-55.58z" fill="#d4d4d4"/><path d="m0 211.16h221.17v3.95h-221.17z" fill="#f1f0f0"/><path d="m0 261.18h221.17v3.95h-221.17z" fill="#f1f0f0"/><path d="m0 311.2h221.17v3.95h-221.17z" fill="#f1f0f0"/><path d="m0 361.23h221.17v3.95h-221.17z" fill="#f1f0f0"/><path d="m0 411.25h221.17v3.95h-221.17z" fill="#f1f0f0"/><path d="m0 461.28h221.17v3.95h-221.17z" fill="#f1f0f0"/><path d="m0 511.3h221.17v3.95h-221.17z" fill="#f1f0f0"/><path d="m20 231.51h13.26v13.26h-13.26z" fill="#d4d4d4"/><path d="m49.39 235.84h149.81v4.59h-149.81z" fill="#d4d4d4"/><path d="m20 281.53h13.26v13.26h-13.26z" fill="#d4d4d4"/><path d="m49.39 285.87h149.81v4.59h-149.81z" fill="#d4d4d4"/><path d="m20 331.56h13.26v13.26h-13.26z" fill="#d4d4d4"/><path d="m49.39 335.89h149.81v4.59h-149.81z" fill="#d4d4d4"/><path d="m20 381.58h13.26v13.26h-13.26z" fill="#d4d4d4"/><path d="m49.39 385.92h149.81v4.59h-149.81z" fill="#d4d4d4"/><path d="m20 431.61h13.26v13.26h-13.26z" fill="#d4d4d4"/><path d="m49.39 435.95h149.81v4.59h-149.81z" fill="#d4d4d4"/><path d="m20 481.63h13.26v13.26h-13.26z" fill="#d4d4d4"/><path d="m49.39 485.96h149.81v4.59h-149.81z" fill="#d4d4d4"/><path d="m140.94 253.61h1135.06v546.62h-1135.06z" fill="#333" opacity=".2"/><path d="m151.32 263.61h1144.68v557.75h-1144.68z" fill="#fff"/><path d="m151.32 263.61h1144.68v58.61h-1144.68z" fill="#f1f0f0"/><path d="m1178.86 288.62h50.69v8.59h-50.69z" fill="#f36c3d"/><path d="m151.32 316.63h125.75v5.59h-125.75z" fill="#f36c3d"/><path d="m195.3 283.22h4.44a8.35 8.35 0 0 1 4.52.93 3.31 3.31 0 0 1 1.4 3 3.37 3.37 0 0 1 -.78 2.3 3.7 3.7 0 0 1 -2.27 1.18v.1c2.38.41 3.58 1.67 3.58 3.76a4 4 0 0 1 -1.43 3.29 6 6 0 0 1 -4 1.18h-5.46zm1.83 6.72h3a4.89 4.89 0 0 0 2.78-.6 2.36 2.36 0 0 0 .85-2 2.09 2.09 0 0 0 -1-1.91 6 6 0 0 0 -3-.58h-2.69zm0 1.55v5.88h3.28a4.66 4.66 0 0 0 2.86-.74 2.72 2.72 0 0 0 1-2.3 2.45 2.45 0 0 0 -1-2.15 5.16 5.16 0 0 0 -3-.69zm22.32 1.51a6.46 6.46 0 0 1 -1.45 4.49 5.08 5.08 0 0 1 -4 1.62 5.33 5.33 0 0 1 -2.81-.74 5 5 0 0 1 -1.89-2.13 7.52 7.52 0 0 1 -.66-3.24 6.47 6.47 0 0 1 1.44-4.49 5.64 5.64 0 0 1 7.93 0 6.47 6.47 0 0 1 1.44 4.49zm-9 0a5.55 5.55 0 0 0 .91 3.43 3.09 3.09 0 0 0 2.65 1.18 3.18 3.18 0 0 0 2.66-1.17 5.58 5.58 0 0 0 .91-3.44 5.49 5.49 0 0 0 -.91-3.41 3.18 3.18 0 0 0 -2.68-1.17 3.15 3.15 0 0 0 -2.65 1.15 5.6 5.6 0 0 0 -.86 3.43zm20.14 4.34h-.09a4.2 4.2 0 0 1 -3.7 1.8 4.38 4.38 0 0 1 -3.59-1.58 6.92 6.92 0 0 1 -1.29-4.49 7.07 7.07 0 0 1 1.29-4.52 4.33 4.33 0 0 1 3.59-1.62 4.26 4.26 0 0 1 3.67 1.74h.14l-.07-.84v-5.62h1.78v16.71h-1.45zm-3.56.3a3.23 3.23 0 0 0 2.64-1 5 5 0 0 0 .83-3.21v-.37a5.82 5.82 0 0 0 -.84-3.57 3.13 3.13 0 0 0 -2.66-1.07 2.72 2.72 0 0 0 -2.4 1.22 6.11 6.11 0 0 0 -.83 3.44 5.83 5.83 0 0 0 .83 3.41 2.83 2.83 0 0 0 2.4 1.15zm7.16-10.49h1.91l2.58 6.71a23.94 23.94 0 0 1 1 3.32h.09c.09-.36.29-1 .59-1.87s1.26-3.61 2.91-8.16h1.91l-5.06 13.41a6.75 6.75 0 0 1 -1.75 2.82 3.75 3.75 0 0 1 -2.47.83 7.29 7.29 0 0 1 -1.61-.18v-1.43a6.49 6.49 0 0 0 1.32.13 2.72 2.72 0 0 0 2.62-2.07l.66-1.67z" fill="#7e7e7e"/><path d="m1266.41 301.47 8.29-14.35h-16.58z" fill="#f36c3d"/><path d="m151.32 784.08h1144.68v37.27h-1144.68z" fill="#f1f0f0"/><path d="m151.32 781.98h1144.68v4.21h-1144.68z" fill="#eaeaea"/><path d="m703.37 294.75a3.84 3.84 0 0 1 -1.51 3.23 6.51 6.51 0 0 1 -4.08 1.16 10.14 10.14 0 0 1 -4.29-.72v-1.76a11.84 11.84 0 0 0 2.1.64 10.71 10.71 0 0 0 2.26.24 4.59 4.59 0 0 0 2.75-.69 2.28 2.28 0 0 0 .92-1.93 2.43 2.43 0 0 0 -.33-1.34 3 3 0 0 0 -1.09-1 15.11 15.11 0 0 0 -2.34-1 7.41 7.41 0 0 1 -3.13-1.86 4.07 4.07 0 0 1 -.94-2.8 3.5 3.5 0 0 1 1.36-2.89 5.68 5.68 0 0 1 3.61-1.08 10.81 10.81 0 0 1 4.31.86l-.57 1.59a9.83 9.83 0 0 0 -3.78-.81 3.67 3.67 0 0 0 -2.27.62 2.06 2.06 0 0 0 -.81 1.73 2.69 2.69 0 0 0 .3 1.34 2.93 2.93 0 0 0 1 1 12.72 12.72 0 0 0 2.19 1 8.78 8.78 0 0 1 3.4 1.89 3.72 3.72 0 0 1 .94 2.58zm6.74 2.92a7 7 0 0 0 .92-.07c.29-.05.52-.1.7-.15v1.37a3.64 3.64 0 0 1 -.86.23 5.55 5.55 0 0 1 -1 .09q-3.42 0-3.42-3.6v-7h-1.69v-.86l1.69-.74.75-2.52h1v2.73h3.42v1.39h-3.42v6.92a2.37 2.37 0 0 0 .51 1.64 1.77 1.77 0 0 0 1.4.57zm11.21 1.25-.36-1.67h-.08a5 5 0 0 1 -1.76 1.5 5.4 5.4 0 0 1 -2.18.39 3.93 3.93 0 0 1 -2.75-.9 3.3 3.3 0 0 1 -1-2.57q0-3.57 5.7-3.74l2-.06v-.73a3 3 0 0 0 -.6-2.05 2.46 2.46 0 0 0 -1.9-.66 7.77 7.77 0 0 0 -3.33.9l-.55-1.36a7.64 7.64 0 0 1 1.91-.74 8.06 8.06 0 0 1 2.07-.27 4.5 4.5 0 0 1 3.12.93 3.88 3.88 0 0 1 1 3v8zm-4-1.25a3.66 3.66 0 0 0 2.62-.92 3.38 3.38 0 0 0 1-2.55v-1.07l-1.79.08a6.48 6.48 0 0 0 -3.06.66 2 2 0 0 0 -.94 1.82 1.82 1.82 0 0 0 .58 1.47 2.38 2.38 0 0 0 1.56.51zm12.8 0a5.84 5.84 0 0 0 1.61-.22v1.37a3.64 3.64 0 0 1 -.86.23 5.55 5.55 0 0 1 -1 .09q-3.42 0-3.42-3.6v-7h-1.68v-.86l1.68-.74.75-2.52h1v2.73h3.41v1.39h-3.41v6.92a2.42 2.42 0 0 0 .5 1.64 1.73 1.73 0 0 0 1.42.57zm5.64-10.52v7.64a3.09 3.09 0 0 0 .65 2.15 2.67 2.67 0 0 0 2.05.71 3.36 3.36 0 0 0 2.7-1 5.08 5.08 0 0 0 .86-3.3v-6.19h1.78v11.77h-1.47l-.26-1.58h-.07a3.61 3.61 0 0 1 -1.53 1.34 5.25 5.25 0 0 1 -2.21.46 4.47 4.47 0 0 1 -3.22-1 4.35 4.35 0 0 1 -1.07-3.27v-7.7zm19.42 8.56a3 3 0 0 1 -1.23 2.54 5.76 5.76 0 0 1 -3.43.89 7.59 7.59 0 0 1 -3.66-.74v-1.66a9.06 9.06 0 0 0 1.82.68 8 8 0 0 0 1.88.25 4.21 4.21 0 0 0 2.15-.45 1.47 1.47 0 0 0 .75-1.36 1.44 1.44 0 0 0 -.6-1.17 9.51 9.51 0 0 0 -2.32-1.16 11.78 11.78 0 0 1 -2.34-1.07 3.4 3.4 0 0 1 -1-1 2.68 2.68 0 0 1 -.34-1.39 2.61 2.61 0 0 1 1.14-2.27 5.36 5.36 0 0 1 3.21-.83 9.32 9.32 0 0 1 3.72.77l-.63 1.45a8.54 8.54 0 0 0 -3.22-.73 3.72 3.72 0 0 0 -1.91.4 1.22 1.22 0 0 0 -.64 1.09 1.31 1.31 0 0 0 .24.81 2.38 2.38 0 0 0 .78.63 19.54 19.54 0 0 0 2.06.87 7.67 7.67 0 0 1 2.83 1.54 2.7 2.7 0 0 1 .74 1.91zm2.64-7.41c0-1 .42-1.45 1.27-1.45s1.32.48 1.32 1.45a1.44 1.44 0 0 1 -.36 1.07 1.39 1.39 0 0 1 -1.87 0 1.44 1.44 0 0 1 -.36-1.07zm0 9.49a1.59 1.59 0 0 1 .33-1.09 1.2 1.2 0 0 1 .94-.38 1.25 1.25 0 0 1 1 .38 1.54 1.54 0 0 1 .35 1.09 1.46 1.46 0 0 1 -.36 1.07 1.25 1.25 0 0 1 -1 .38 1.28 1.28 0 0 1 -.91-.34 1.5 1.5 0 0 1 -.35-1.11z" fill="#7e7e7e"/><path d="m779.15 298.92h-10.32v-1.53l4.14-4.16a29.19 29.19 0 0 0 2.49-2.73 6.93 6.93 0 0 0 .9-1.59 4.69 4.69 0 0 0 .3-1.66 2.66 2.66 0 0 0 -.76-2 2.89 2.89 0 0 0 -2.12-.73 5.54 5.54 0 0 0 -1.85.32 7.57 7.57 0 0 0 -1.93 1.16l-1-1.21a7.25 7.25 0 0 1 4.73-1.81 5 5 0 0 1 3.47 1.14 3.88 3.88 0 0 1 1.26 3 6 6 0 0 1 -.84 3 18.77 18.77 0 0 1 -3.14 3.69l-3.43 3.36v.09h8.07zm12.67-7.87a11.46 11.46 0 0 1 -1.29 6.08 4.74 4.74 0 0 1 -6.61 1.14 4.9 4.9 0 0 1 -1.17-1.19 11.2 11.2 0 0 1 -1.32-6q0-4.11 1.28-6.09a4.75 4.75 0 0 1 7.78.08 11.21 11.21 0 0 1 1.33 5.98zm-8.58 0a11.39 11.39 0 0 0 .8 5 2.9 2.9 0 0 0 5.15 0 15.76 15.76 0 0 0 0-9.93 2.91 2.91 0 0 0 -3.93-1.22 2.87 2.87 0 0 0 -1.22 1.22 11.38 11.38 0 0 0 -.8 4.93zm21.16 0a11.46 11.46 0 0 1 -1.29 6.08 4.74 4.74 0 0 1 -6.61 1.14 4.9 4.9 0 0 1 -1.17-1.19 11.2 11.2 0 0 1 -1.32-6q0-4.11 1.28-6.09a4.75 4.75 0 0 1 7.78.08 11.21 11.21 0 0 1 1.33 5.98zm-8.58 0a11.39 11.39 0 0 0 .8 5 2.9 2.9 0 0 0 5.15 0 15.76 15.76 0 0 0 0-9.93 2.91 2.91 0 0 0 -3.93-1.22 2.87 2.87 0 0 0 -1.22 1.22 11.38 11.38 0 0 0 -.8 4.93zm31.18 0a8.66 8.66 0 0 1 -1.91 5.93 6.68 6.68 0 0 1 -5.3 2.16 6.81 6.81 0 0 1 -5.35-2.12 10.39 10.39 0 0 1 0-11.95 6.86 6.86 0 0 1 5.37-2.11 6.7 6.7 0 0 1 5.29 2.15 8.62 8.62 0 0 1 1.9 5.94zm-12.51 0a7.52 7.52 0 0 0 1.35 4.84 4.87 4.87 0 0 0 3.95 1.65 4.78 4.78 0 0 0 3.94-1.65 9.39 9.39 0 0 0 0-9.65 4.75 4.75 0 0 0 -3.93-1.64 4.83 4.83 0 0 0 -4 1.65 7.39 7.39 0 0 0 -1.31 4.8zm27.36 7.87h-2.15l-5.7-7.61-1.64 1.46v6.15h-1.86v-15.7h1.83v7.78l7.12-7.79h2.16l-6.32 6.79z" fill="#57bf98"/><path d="m873 298.92h-1.83v-14.08h-5v-1.62h11.77v1.62h-5zm6.87-14.92a1.19 1.19 0 0 1 .3-.9 1 1 0 0 1 .75-.28 1.08 1.08 0 0 1 .74.29 1.13 1.13 0 0 1 .31.89 1.19 1.19 0 0 1 -.31.9 1.1 1.1 0 0 1 -1.49 0 1.19 1.19 0 0 1 -.3-.9zm1.93 15h-1.8v-11.85h1.78zm18.79-.08v-7.66a3.24 3.24 0 0 0 -.6-2.11 2.37 2.37 0 0 0 -1.87-.7 3 3 0 0 0 -2.46 1 4.53 4.53 0 0 0 -.8 2.94v6.61h-1.78v-7.7a3.24 3.24 0 0 0 -.6-2.11 2.36 2.36 0 0 0 -1.88-.7 2.9 2.9 0 0 0 -2.45 1 5.36 5.36 0 0 0 -.78 3.29v6.22h-1.79v-11.8h1.42l.29 1.61h.09a3.52 3.52 0 0 1 1.42-1.34 4.34 4.34 0 0 1 2.06-.48c1.84 0 3 .66 3.61 2h.08a3.77 3.77 0 0 1 1.53-1.46 4.87 4.87 0 0 1 2.28-.53 4 4 0 0 1 3 1 4.62 4.62 0 0 1 1 3.28v7.68zm10.41.22a5.42 5.42 0 0 1 -4.12-1.59 6.13 6.13 0 0 1 -1.51-4.42 6.86 6.86 0 0 1 1.4-4.52 4.67 4.67 0 0 1 3.77-1.67 4.46 4.46 0 0 1 3.5 1.45 5.53 5.53 0 0 1 1.29 3.84v1.13h-8.11a4.65 4.65 0 0 0 1 3.15 3.63 3.63 0 0 0 2.79 1.07 9.39 9.39 0 0 0 3.76-.79v1.59a10 10 0 0 1 -1.77.62 9.51 9.51 0 0 1 -2 .14zm-.48-10.71a2.92 2.92 0 0 0 -2.26.92 4.24 4.24 0 0 0 -1 2.56h6.16a3.9 3.9 0 0 0 -.75-2.58 2.66 2.66 0 0 0 -2.13-.9zm7.61-.13c0-1 .42-1.45 1.27-1.45s1.32.48 1.32 1.45a1.49 1.49 0 0 1 -.35 1.07 1.25 1.25 0 0 1 -1 .38 1.28 1.28 0 0 1 -.91-.34 1.45 1.45 0 0 1 -.33-1.11zm0 9.49a1.59 1.59 0 0 1 .33-1.09 1.2 1.2 0 0 1 .94-.38 1.25 1.25 0 0 1 1 .38 1.83 1.83 0 0 1 0 2.16 1.25 1.25 0 0 1 -1 .38 1.28 1.28 0 0 1 -.91-.34 1.47 1.47 0 0 1 -.36-1.11z" fill="#7e7e7e"/><path d="m935.75 298.92h-1.75v-11.19c0-.93 0-1.81.08-2.64-.15.15-.31.31-.5.47s-1 .86-2.56 2.1l-.94-1.23 4.15-3.21h1.51zm16.38-7.87a11.54 11.54 0 0 1 -1.28 6.08 4.73 4.73 0 0 1 -6.6 1.15 4.53 4.53 0 0 1 -1.19-1.2 11.2 11.2 0 0 1 -1.32-6q0-4.11 1.28-6.09a4.75 4.75 0 0 1 7.78.08 11.21 11.21 0 0 1 1.33 5.98zm-8.58 0a11.69 11.69 0 0 0 .8 5 2.9 2.9 0 0 0 5.15 0 15.76 15.76 0 0 0 0-9.93 2.91 2.91 0 0 0 -5.15 0 11.47 11.47 0 0 0 -.8 4.93zm21.07 7.87h-10.32v-1.53l4.14-4.16a29.19 29.19 0 0 0 2.49-2.73 6.93 6.93 0 0 0 .9-1.59 4.69 4.69 0 0 0 .3-1.66 2.66 2.66 0 0 0 -.76-2 2.89 2.89 0 0 0 -2.12-.73 5.54 5.54 0 0 0 -1.85.32 7.89 7.89 0 0 0 -1.95 1.17l-1-1.21a7.25 7.25 0 0 1 4.73-1.81 5 5 0 0 1 3.47 1.14 3.88 3.88 0 0 1 1.26 3 6 6 0 0 1 -.84 3 18.77 18.77 0 0 1 -3.14 3.69l-3.43 3.36v.09h8.07zm18.08 0v-7.66a3.24 3.24 0 0 0 -.6-2.11 2.33 2.33 0 0 0 -1.87-.7 3 3 0 0 0 -2.46 1 4.58 4.58 0 0 0 -.79 2.94v6.61h-1.79v-7.7a3.24 3.24 0 0 0 -.6-2.11 2.36 2.36 0 0 0 -1.88-.7 2.9 2.9 0 0 0 -2.45 1 5.36 5.36 0 0 0 -.78 3.29v6.22h-1.78v-11.8h1.45l.29 1.61h.08a3.55 3.55 0 0 1 1.43-1.34 4.34 4.34 0 0 1 2-.48c1.84 0 3 .66 3.61 2h.09a3.81 3.81 0 0 1 1.52-1.46 4.9 4.9 0 0 1 2.28-.53 4 4 0 0 1 3 1 4.53 4.53 0 0 1 1 3.28v7.68zm13.05-3.21a3 3 0 0 1 -1.22 2.54 5.79 5.79 0 0 1 -3.44.89 7.55 7.55 0 0 1 -3.65-.74v-1.66a8.49 8.49 0 0 0 1.82.68 8 8 0 0 0 1.88.25 4.18 4.18 0 0 0 2.14-.45 1.49 1.49 0 0 0 .76-1.36 1.44 1.44 0 0 0 -.6-1.17 9.57 9.57 0 0 0 -2.33-1.16 12 12 0 0 1 -2.33-1.07 3.18 3.18 0 0 1 -1-1 2.68 2.68 0 0 1 -.34-1.39 2.61 2.61 0 0 1 1.17-2.27 5.36 5.36 0 0 1 3.21-.83 9.32 9.32 0 0 1 3.72.77l-.64 1.45a8.45 8.45 0 0 0 -3.21-.73 3.72 3.72 0 0 0 -1.91.4 1.22 1.22 0 0 0 -.64 1.09 1.31 1.31 0 0 0 .24.81 2.38 2.38 0 0 0 .78.63 15.5 15.5 0 0 0 2.06.87 7.67 7.67 0 0 1 2.83 1.54 2.7 2.7 0 0 1 .7 1.91z" fill="#57bf98"/><path d="m1030.59 294.75a3.84 3.84 0 0 1 -1.51 3.23 6.51 6.51 0 0 1 -4.08 1.16 10.37 10.37 0 0 1 -4.3-.72v-1.76a11.94 11.94 0 0 0 2.11.64 10.71 10.71 0 0 0 2.26.24 4.59 4.59 0 0 0 2.75-.69 2.28 2.28 0 0 0 .92-1.93 2.43 2.43 0 0 0 -.33-1.34 3 3 0 0 0 -1.09-1 15.11 15.11 0 0 0 -2.34-1 7.41 7.41 0 0 1 -3.13-1.86 4.07 4.07 0 0 1 -.94-2.8 3.5 3.5 0 0 1 1.36-2.89 5.68 5.68 0 0 1 3.61-1.08 10.81 10.81 0 0 1 4.31.86l-.57 1.59a9.83 9.83 0 0 0 -3.78-.81 3.67 3.67 0 0 0 -2.27.62 2.06 2.06 0 0 0 -.81 1.73 2.69 2.69 0 0 0 .3 1.34 2.93 2.93 0 0 0 1 1 12.72 12.72 0 0 0 2.19 1 8.78 8.78 0 0 1 3.4 1.89 3.72 3.72 0 0 1 .94 2.58zm2.79-10.75a1.19 1.19 0 0 1 .3-.9 1.12 1.12 0 0 1 1.49 0 1.14 1.14 0 0 1 .32.89 1.19 1.19 0 0 1 -.32.9 1.1 1.1 0 0 1 -1.49 0 1.25 1.25 0 0 1 -.3-.89zm1.93 15h-1.78v-11.85h1.78zm11.32-.08h-8.54v-1.21l6.42-9.17h-6v-1.39h8v1.39l-6.33 9h6.5zm7.73.22a5.42 5.42 0 0 1 -4.12-1.59 6.13 6.13 0 0 1 -1.51-4.42 6.86 6.86 0 0 1 1.4-4.52 4.67 4.67 0 0 1 3.77-1.67 4.46 4.46 0 0 1 3.5 1.45 5.53 5.53 0 0 1 1.29 3.84v1.13h-8.11a4.69 4.69 0 0 0 1.05 3.15 3.63 3.63 0 0 0 2.79 1.07 9.39 9.39 0 0 0 3.76-.79v1.59a8.65 8.65 0 0 1 -3.82.76zm-.48-10.71a2.92 2.92 0 0 0 -2.26.92 4.24 4.24 0 0 0 -1 2.56h6.16a3.9 3.9 0 0 0 -.75-2.58 2.66 2.66 0 0 0 -2.15-.9zm7.59-.13c0-1 .42-1.45 1.27-1.45s1.32.48 1.32 1.45a1.49 1.49 0 0 1 -.35 1.07 1.25 1.25 0 0 1 -1 .38 1.28 1.28 0 0 1 -.91-.34 1.45 1.45 0 0 1 -.33-1.11zm0 9.49a1.59 1.59 0 0 1 .33-1.09 1.2 1.2 0 0 1 .94-.38 1.25 1.25 0 0 1 1 .38 1.83 1.83 0 0 1 0 2.16 1.25 1.25 0 0 1 -1 .38 1.28 1.28 0 0 1 -.91-.34 1.47 1.47 0 0 1 -.36-1.11z" fill="#7e7e7e"/><path d="m1077.39 289.33a5.81 5.81 0 0 1 3.91 1.23 4.23 4.23 0 0 1 1.42 3.37 4.87 4.87 0 0 1 -1.55 3.82 6.21 6.21 0 0 1 -4.28 1.39 7.8 7.8 0 0 1 -4.05-.85v-1.72a6.09 6.09 0 0 0 1.87.76 9.08 9.08 0 0 0 2.2.27 4.37 4.37 0 0 0 2.94-.89 3.2 3.2 0 0 0 1-2.58q0-3.28-4-3.28a15.64 15.64 0 0 0 -2.73.31l-.93-.59.59-7.35h7.81v1.64h-6.28l-.4 4.72a12.2 12.2 0 0 1 2.48-.25zm8.23 8.46a1.59 1.59 0 0 1 .33-1.09 1.2 1.2 0 0 1 .94-.38 1.25 1.25 0 0 1 1 .38 1.54 1.54 0 0 1 .35 1.09 1.5 1.5 0 0 1 -.36 1.07 1.25 1.25 0 0 1 -1 .38 1.28 1.28 0 0 1 -.91-.34 1.5 1.5 0 0 1 -.35-1.11zm10.21-8.46a5.78 5.78 0 0 1 3.9 1.23 4.23 4.23 0 0 1 1.42 3.37 4.84 4.84 0 0 1 -1.55 3.82 6.16 6.16 0 0 1 -4.28 1.39 7.8 7.8 0 0 1 -4-.85v-1.72a6.09 6.09 0 0 0 1.87.76 9.08 9.08 0 0 0 2.2.27 4.37 4.37 0 0 0 2.94-.89 3.17 3.17 0 0 0 1-2.58c0-2.19-1.35-3.28-4-3.28a15.64 15.64 0 0 0 -2.73.31l-.92-.59.59-7.35h7.81v1.64h-6.29l-.39 4.72a11.65 11.65 0 0 1 2.43-.25zm7.85 2.88c0-3.09.6-5.39 1.8-6.92a6.36 6.36 0 0 1 5.32-2.3 6.83 6.83 0 0 1 1.91.21v1.53a6 6 0 0 0 -1.89-.27 4.8 4.8 0 0 0 -3.82 1.54 8.18 8.18 0 0 0 -1.46 4.95h.13a4.11 4.11 0 0 1 3.74-1.85 4.39 4.39 0 0 1 3.34 1.28 4.81 4.81 0 0 1 1.22 3.47 5.34 5.34 0 0 1 -1.34 3.85 4.75 4.75 0 0 1 -3.62 1.4 4.65 4.65 0 0 1 -3.86-1.83 8.08 8.08 0 0 1 -1.47-5.06zm5.27 5.41a3 3 0 0 0 2.37-1 4.07 4.07 0 0 0 .84-2.77 3.6 3.6 0 0 0 -.78-2.45 2.9 2.9 0 0 0 -2.34-.9 4 4 0 0 0 -1.77.4 3.29 3.29 0 0 0 -1.27 1.1 2.52 2.52 0 0 0 -.48 1.45 5 5 0 0 0 .43 2.06 3.78 3.78 0 0 0 1.22 1.52 3 3 0 0 0 1.83.59zm25.27 1.3h-2.15l-5.73-7.61-1.64 1.46v6.15h-1.83v-15.7h1.83v7.78l7.12-7.79h2.18l-6.32 6.82zm2.16-15.7h4.43a8.37 8.37 0 0 1 4.53.93 3.29 3.29 0 0 1 1.39 3 3.37 3.37 0 0 1 -.78 2.3 3.7 3.7 0 0 1 -2.27 1.18v.11c2.39.4 3.58 1.66 3.58 3.76a4 4 0 0 1 -1.43 3.28 6 6 0 0 1 -4 1.18h-5.48zm1.82 6.72h3a4.89 4.89 0 0 0 2.78-.6 2.36 2.36 0 0 0 .85-2 2.08 2.08 0 0 0 -.94-1.91 6 6 0 0 0 -3-.58h-2.69zm0 1.55v5.88h3.28a4.66 4.66 0 0 0 2.86-.74 2.72 2.72 0 0 0 1-2.3 2.44 2.44 0 0 0 -1-2.15 5.16 5.16 0 0 0 -3-.69z" fill="#57bf98"/><path d="m469.07 334.28h-272.42a5.38 5.38 0 0 0 -5.38 5.38v30.95a5.38 5.38 0 0 0 5.37 5.39h272.43z" fill="#f1f0f0"/><path d="m561.25 334.28h-88.4v41.72h88.4a5.39 5.39 0 0 0 5.39-5.39v-30.94a5.39 5.39 0 0 0 -5.39-5.39z" fill="#eaeaea"/><path d="m490.36 349.32h2.45l-3.89 11.42h-2.64l-3.87-11.42h2.44l2.15 6.8c.12.4.24.86.37 1.4s.21.9.24 1.11a19.47 19.47 0 0 1 .59-2.51zm3.64.43c0-.78.44-1.17 1.3-1.17s1.3.39 1.3 1.17a1.11 1.11 0 0 1 -.33.86 1.31 1.31 0 0 1 -1 .31c-.88 0-1.27-.39-1.27-1.17zm2.49 11h-2.38v-8.75h2.38zm8.51-2.6a2.4 2.4 0 0 1 -.93 2 4.58 4.58 0 0 1 -2.79.71 9.86 9.86 0 0 1 -1.63-.13 6.3 6.3 0 0 1 -1.26-.38v-2a7.83 7.83 0 0 0 1.5.52 6.06 6.06 0 0 0 1.46.21c.87 0 1.3-.25 1.3-.75a.62.62 0 0 0 -.17-.45 2.42 2.42 0 0 0 -.6-.4c-.28-.15-.65-.32-1.12-.52a7 7 0 0 1 -1.48-.78 2.31 2.31 0 0 1 -.69-.83 2.78 2.78 0 0 1 -.21-1.14 2.07 2.07 0 0 1 .9-1.8 4.36 4.36 0 0 1 2.56-.64 7.25 7.25 0 0 1 3.07.69l-.72 1.72a12.93 12.93 0 0 0 -1.23-.46 3.85 3.85 0 0 0 -1.16-.18c-.7 0-1.06.19-1.06.57a.66.66 0 0 0 .34.55 9.19 9.19 0 0 0 1.49.7 6.65 6.65 0 0 1 1.5.77 2.37 2.37 0 0 1 .71.83 2.55 2.55 0 0 1 .22 1.19zm8.08 2.59-.32-1.12h-.13a2.47 2.47 0 0 1 -1.08.94 3.68 3.68 0 0 1 -1.6.34 3 3 0 0 1 -2.32-.83 3.32 3.32 0 0 1 -.79-2.37v-5.7h2.39v5.1a2.51 2.51 0 0 0 .33 1.42 1.24 1.24 0 0 0 1.07.47 1.61 1.61 0 0 0 1.45-.67 4.13 4.13 0 0 0 .44-2.21v-4.11h2.39v8.73zm9.92 0-.46-1.19h-.06a3.31 3.31 0 0 1 -1.24 1.05 3.92 3.92 0 0 1 -1.66.3 2.64 2.64 0 0 1 -2-.72 2.77 2.77 0 0 1 -.72-2.05 2.32 2.32 0 0 1 1-2.05 5.71 5.71 0 0 1 2.94-.73l1.51-.05v-.38a1.18 1.18 0 0 0 -1-1.33.92.92 0 0 0 -.33 0 6.22 6.22 0 0 0 -2.46.63l-.79-1.6a7.09 7.09 0 0 1 3.35-.79 4.1 4.1 0 0 1 2.69.76 2.83 2.83 0 0 1 .94 2.33v5.82zm-.7-4.05h-.92a3.1 3.1 0 0 0 -1.55.38 1.18 1.18 0 0 0 -.51 1c0 .67.39 1 1.16 1a1.78 1.78 0 0 0 1.32-.47 1.67 1.67 0 0 0 .5-1.27zm7.15 4.05h-2.38v-12.16h2.38zm2.4-10.99c0-.78.43-1.17 1.3-1.17s1.3.39 1.3 1.17a1.11 1.11 0 0 1 -.33.86 1.31 1.31 0 0 1 -1 .31c-.84 0-1.27-.39-1.27-1.17zm2.49 11h-2.34v-8.75h2.39zm8.57-.01h-6.91v-1.41l4-5.5h-3.8v-1.83h6.51v1.54l-3.93 5.37h4.07zm5.68.16a4.47 4.47 0 0 1 -3.29-1.17 4.36 4.36 0 0 1 -1.19-3.29 4.83 4.83 0 0 1 1.1-3.4 3.92 3.92 0 0 1 3-1.2 3.82 3.82 0 0 1 2.89 1.06 4 4 0 0 1 1 2.91v1.19h-5.64a2.26 2.26 0 0 0 .61 1.58 2.07 2.07 0 0 0 1.57.57 6.89 6.89 0 0 0 1.5-.16 7.7 7.7 0 0 0 1.46-.52v1.84a5.24 5.24 0 0 1 -1.33.46 7.88 7.88 0 0 1 -1.68.13zm-.33-7.36a1.53 1.53 0 0 0 -1.19.48 2.16 2.16 0 0 0 -.49 1.36h3.34a2 2 0 0 0 -.46-1.36 1.58 1.58 0 0 0 -1.2-.48z" fill="#7e7e7e"/><path d="m283.91 334.24h4.21v41.77h-4.21z" fill="#eaeaea"/><path d="m469.2 334.24h4.21v41.77h-4.21z" fill="#eaeaea"/><path d="m376.56 334.25h4.21v41.77h-4.21z" fill="#eaeaea"/><path d="m215.55 352.35h48.28v5.59h-48.28z" fill="#d4d4d4"/><path d="m298.56 290.12h48.28v5.59h-48.28z" fill="#d4d4d4"/><path d="m376.7 290.12h48.28v5.59h-48.28z" fill="#d4d4d4"/><path d="m454.84 290.12h48.28v5.59h-48.28z" fill="#d4d4d4"/><path d="m168.39 407.59h14.21v5.59h-14.21z" fill="#eaeaea"/><path d="m168.39 740.77h14.21v5.59h-14.21z" fill="#eaeaea"/><path d="m298.56 754.63h14.21v5.59h-14.21z" fill="#eaeaea"/><path d="m514.73 754.63h14.21v5.59h-14.21z" fill="#eaeaea"/><path d="m730.9 754.63h14.21v5.59h-14.21z" fill="#eaeaea"/><path d="m947.07 754.63h14.21v5.59h-14.21z" fill="#eaeaea"/><path d="m1163.23 754.63h14.21v5.59h-14.21z" fill="#eaeaea"/><path d="m308.2 352.35h48.28v5.59h-48.28z" fill="#d4d4d4"/><path d="m400.84 352.35h48.28v5.59h-48.28z" fill="#d4d4d4"/><g fill="none" stroke="#ececec" stroke-miterlimit="10" stroke-width="2"><path d="m193.37 409.08h1064.75"/><path d="m193.37 434.81h1062.63"/><path d="m193.37 460.54h1062.63"/><path d="m193.37 486.27h1062.63"/><path d="m193.37 512h1062.63"/><path d="m193.37 537.73h1062.63"/><path d="m193.37 717.84h1062.63"/><path d="m193.37 563.46h1062.63"/><path d="m193.37 589.19h1062.63"/><path d="m193.37 614.92h1062.63"/><path d="m193.37 640.65h1062.63"/><path d="m193.37 666.38h1062.63"/><path d="m193.37 692.11h1062.63"/><path d="m193.37 743.57h1062.63"/></g><path d="m239.69 628.36h131.94v115.21h-131.94z" fill="#7d728e"/><path d="m597.8 429.06-10-8.25v322.76h10z" fill="#d45430"/><path d="m381.56 636.61-10-8.25v115.21h10z" fill="#493e5e"/><path d="m816.08 450.25-10-8.25-2.11 301.57h10z" fill="#1a4561"/><path d="m1032.25 498.99-10-8.24-2.11 252.82h10z" fill="#ce962b"/><path d="m1245.83 608.79-10-8.25.48 143.03h10z" fill="#f36c3d"/><path d="m455.86 420.81h131.94v322.76h-131.94z" fill="#f36c3d"/><path d="m806.08 442h-131.95l-2.1 301.57h131.94z" fill="#6d7f91"/><path d="m1022.25 490.75h-131.95l-2.1 252.82h131.94z" fill="#ffc434"/><path d="m1235.83 600.54h-131.94l.48 143.03h131.94z" fill="#f79d79"/><path d="m189.16 407.6h4.21v338.08h-4.21z" fill="#eaeaea"/><path d="m191.27 741.47h1064.73v4.21h-1064.73z" fill="#eaeaea"/></svg>